<svg width="16" height="16" viewBox="0 0 16 16" fill="none" xmlns="http://www.w3.org/2000/svg">
<g clip-path="url(#clip0_3264_3475)">
<path d="M1 6C1 5.44772 1.44772 5 2 5H10C10.5523 5 11 5.44772 11 6V14C11 14.5523 10.5523 15 10 15H2C1.44772 15 1 14.5523 1 14V6Z" stroke="#8A8A8A"/>
<path fill-rule="evenodd" clip-rule="evenodd" d="M6 1.5C5.93128 1.5 5.867 1.51358 5.80874 1.53774C5.73189 1.56961 5.65164 1.58089 5.57412 1.57412C5.58089 1.65164 5.56961 1.73189 5.53774 1.80874C5.51358 1.867 5.5 1.93128 5.5 2V2.375C5.5 2.52434 5.43453 2.65838 5.33073 2.75C5.43453 2.84162 5.5 2.97566 5.5 3.125V3.5C5.5 3.77614 5.27614 4 5 4C4.72386 4 4.5 3.77614 4.5 3.5V3.125C4.5 2.97566 4.56547 2.84162 4.66927 2.75C4.56547 2.65838 4.5 2.52434 4.5 2.375V2C4.5 1.79753 4.54039 1.60324 4.61402 1.42569C4.69962 1.21925 4.90754 1.10061 5.11893 1.11893C5.10061 0.90754 5.21925 0.699622 5.42569 0.614017C5.60324 0.540388 5.79753 0.5 6 0.5H7C7.27614 0.5 7.5 0.723858 7.5 1C7.5 1.27614 7.27614 1.5 7 1.5H6ZM8.5 1C8.5 0.723858 8.72386 0.5 9 0.5H11C11.2761 0.5 11.5 0.723858 11.5 1C11.5 1.27614 11.2761 1.5 11 1.5H9C8.72386 1.5 8.5 1.27614 8.5 1ZM12.5 1C12.5 0.723858 12.7239 0.5 13 0.5H14C14.8284 0.5 15.5 1.17157 15.5 2V3C15.5 3.27614 15.2761 3.5 15 3.5C14.7239 3.5 14.5 3.27614 14.5 3V2C14.5 1.72386 14.2761 1.5 14 1.5H13C12.7239 1.5 12.5 1.27614 12.5 1ZM15 4.5C15.2761 4.5 15.5 4.72386 15.5 5V7C15.5 7.27614 15.2761 7.5 15 7.5C14.7239 7.5 14.5 7.27614 14.5 7V5C14.5 4.72386 14.7239 4.5 15 4.5ZM15 8.5C15.2761 8.5 15.5 8.72386 15.5 9V10C15.5 10.2025 15.4596 10.3968 15.386 10.5743C15.3004 10.7807 15.0925 10.8994 14.8811 10.8811C14.8994 11.0925 14.7807 11.3004 14.5743 11.386C14.3968 11.4596 14.2025 11.5 14 11.5H13.625C13.4757 11.5 13.3416 11.4345 13.25 11.3307C13.1584 11.4345 13.0243 11.5 12.875 11.5H12.5C12.2239 11.5 12 11.2761 12 11C12 10.7239 12.2239 10.5 12.5 10.5H12.875C13.0243 10.5 13.1584 10.5655 13.25 10.6693C13.3416 10.5655 13.4757 10.5 13.625 10.5H14C14.0687 10.5 14.133 10.4864 14.1913 10.4623C14.2681 10.4304 14.3484 10.4191 14.4259 10.4259C14.4191 10.3484 14.4304 10.2681 14.4623 10.1913C14.4864 10.133 14.5 10.0687 14.5 10V9C14.5 8.72386 14.7239 8.5 15 8.5Z" fill="#8A8A8A"/>
</g>
<defs>
<clipPath id="clip0_3264_3475">
<rect width="16" height="16" fill="white"/>
</clipPath>
</defs>
</svg>
