<svg width="20" height="20" viewBox="0 0 20 20" fill="none" xmlns="http://www.w3.org/2000/svg">
<path fill-rule="evenodd" clip-rule="evenodd" d="M9.91667 2.26953L13.4583 4.41239V8.47159L9.91667 10.3763L6.375 8.47159V4.41239L9.91667 2.26953ZM7.625 5.11708V7.72454L9.91667 8.95704L12.2083 7.72454V5.11708L9.91667 3.73052L7.625 5.11708ZM13.9167 9.26953L17.4583 11.4124V15.4716L13.9167 17.3763L10.375 15.4716V11.4124L13.9167 9.26953ZM11.625 12.1171V14.7245L13.9167 15.957L16.2083 14.7245V12.1171L13.9167 10.7305L11.625 12.1171ZM9.45833 11.4124L5.91667 9.26953L2.375 11.4124V15.4716L5.91667 17.3763L9.45833 15.4716V11.4124ZM3.625 14.7245V12.1171L5.91667 10.7305L8.20833 12.1171V14.7245L5.91667 15.957L3.625 14.7245Z" fill="#8A8A8A"/>
</svg>
